<svg xmlns="http://www.w3.org/2000/svg" xmlns:xlink="http://www.w3.org/1999/xlink" width="1920" height="1080" viewBox="0 0 1920 1080">
  <defs>
    <linearGradient id="linear-gradient" x1="1.268" y1="1.272" x2="0" gradientUnits="objectBoundingBox">
      <stop offset="0" stop-color="#7937d8"/>
      <stop offset="1" stop-color="#4a2384"/>
    </linearGradient>
    <linearGradient id="linear-gradient-2" x1="0.255" y1="-0.448" x2="0.451" y2="1.024" gradientUnits="objectBoundingBox">
      <stop offset="0" stop-color="#7937d8"/>
      <stop offset="1" stop-color="#612fa7" stop-opacity="0"/>
      <stop offset="1" stop-color="#3d1c6c" stop-opacity="0.271"/>
    </linearGradient>
  </defs>
  <g id="bg" transform="translate(0 0)">
    <rect id="Rectangle_1" data-name="Rectangle 1" width="1920" height="1080" fill="url(#linear-gradient)"/>
    <rect id="Rectangle_2" data-name="Rectangle 2" width="481" height="709" rx="69" transform="matrix(0.719, -0.695, 0.695, 0.719, 762.449, 418.131)" fill="url(#linear-gradient-2)"/>
    <path id="Subtraction_3" data-name="Subtraction 3" d="M582.525,870.378a34.893,34.893,0,0,1-25.181-10.687L113.458,400.033a34.971,34.971,0,0,1,.864-49.49L212.224,256H624.963L685,318.17v466.9l-78.166,75.484A34.829,34.829,0,0,1,582.525,870.378Z" transform="translate(1235 -256)" fill="url(#linear-gradient-2)"/>
    <path id="Subtraction_1" data-name="Subtraction 1" d="M722.7,417.374H97.3L44.583,356.735a68.679,68.679,0,0,1-16.416-36.847A69.2,69.2,0,0,1,34.678,281.1a68.57,68.57,0,0,1,16.713-21.713L303.464,40.268A68.739,68.739,0,0,1,348.7,23.342a69.222,69.222,0,0,1,28.167,5.98,68.629,68.629,0,0,1,12.752,7.422,69.42,69.42,0,0,1,11.186,10.33l321.9,370.3h0Z" transform="translate(208 662.626)" fill="url(#linear-gradient-2)"/>
  </g>
</svg>
